<?xml version="1.0" encoding="UTF-8"?>
<svg version="1.1" viewBox="0 0 1023 1023" width="1023" height="1023" xmlns="http://www.w3.org/2000/svg">
<path transform="translate(0)" d="m0 0h1023v1023h-1023z" fill="#FEFEFE"/>
<path transform="translate(172,439)" d="m0 0h5v2l6 1 4 1 4-2v-2l10 2 4-2h7l9 3 3-1v-2l9 1 14 5 8 10 3 9v5l-2 1v7l2 4v7l-2 3v6l2 3v8l-2 5 1 9-3 4 2 7 2 6-2 4v13l-7 8h-2l-1 3h-2l-1 3h-2l-1 3-2 1-9-1-2-1h-7l-1 2-11-1-4 2h-6l-7-3-5 1-1 2-8-1-14-4-3-5-6-4-2-9v-7h2l-2-10v-10l1-1v-7l-2-4v-7l1-2v-13l2-4-2-7-1-7 2-3v-7l-1-4 3-4h2v-2l4-4h2l2-4 3-1 1-3z" fill="#519A62"/>
<path transform="translate(640,439)" d="m0 0h5l7 3 9 2 3 6 6 3 2 4 4 4v2l5 1 4 6 5 5 2 5v9l-1 1v7l1 3v9l-5 5-8 7-4 5-8 8h-2v5l8 7 4 6 5 2 8 12v5l-4 3-6-1-4-1-4 3-8-1-12-4-4-8v-9l1-5-3-3-5-2h-4l-1 2-5 1v10l-2 3 1 6 1 5-4 3-7 1-1 1-9-1-7-1-5 2-7-1-3-3 1-9-1-7v-18l-1-10 1-9-2-6 1-6 1-24-2-7 2-4v-13l5-5 10-11 3-2 7 1 9 2 3-2h13z" fill="#428556"/>
<path transform="translate(300,439)" d="m0 0 10 2 4-2h8l6 3 9 3 4 6 9 7 2 5 7 4 4 5 1 5-3 4h-2l-1 3h-2v2l-3 3h-2l-1 3-7 6-5 6 1 6 2 3 4 2 4 6 7 6 3 2 2 7 1 2-4 6-6 5-5 5-3 4h-2l-2 4-7 6-5 5-4 1-6-2-6 3-6-1-5-2h-5l-4 3-17-4-1 3-8-1-5-3 1-5 1-1v-9l-2-4v-6l2-1v-7l-2-3v-9l2-2-1-7-1-1v-10l1-6-1-7 2-2v-7l-1-4 2-4h2l1-3 7-6 4-5 7-6 2-3h2v-2l8-7z" fill="#519A62"/>
<path transform="translate(753,439)" d="m0 0h5l4 5v2l4 1v2h2v3l5 2 3 4v2l4 2 2 4 4 1 2 2v3l5 2 3 4v2l4 1 2 5 5 2 1 3h2v2h2l-1-9-1-1v-5l9-10 8-8h2l2-4 4-4h2l2-4 8-9h5l3 3-1 7h-2l2 7 1 4v7l-2 3 1 7 1 1v10l-1 6 1 6-1 3h-2l2 10 1 6-2 6v6l2 5v6l-1 2 1 18-3 10-5 2-1-3-3-1v-2l-5-2-3-6-5-3-1-3-4-2-3-5-6-3-3-5-3-3 1-5v-17l-9-2h-5l-4 5h-2l2 8v12h-2l4 16-2 6v11l-3 2-5-1v2l-3 2-9-1-10-3-2 4-9-2-3-3 1-5 1-4-2-9v-7h2l-1-8-1-3v-9l2-5-3-8 1-15v-6l2-2-1-7-1-2v-10l1-1v-7l-2-5 1-8 3-9z" fill="#428556"/>
<path transform="translate(527,439)" d="m0 0h8l9 4 7 2 4 6 3 2v2l5 2 4 6 5 4v2l4 2 2 4v3h2l1 3v8l-1 2h-2l2 7v5l-2 1-1 8-8 8h-2l-2 4-4 2-2 4-4 4h-2l-2 4-4 5-3 2h-7l-4-2h-6l-3 2h-5v25l-3 2h-5l-4 3-8-1-4-2h-5l-3 3-10-3-2-4 2-4h2l-4-14 1-5 3-1-3-7-1-9 2-8-1-2v-7l2-1v-6l-2-3v-10l1-2h2l-2-5-1-1v-5l3-1 2-4 4-4h2l2-4 4-2v-2l9-9h2l2-4 8-8 13 1z" fill="#519A62"/>
<path transform="translate(905,439)" d="m0 0h6l5 1 1-1h13l12 5 3 3v2h2l1 3 2 1v2l5 2 4 6 5 3 6 6v5l-5 2-1 4h-7l-7-2h-5l-3 2-11-1-1 1h-10l-8-2-2 5 1 8-2 3 1 7 1 3v7l-2 3 1 6 1 5h3v2h14l1-1v-8l-1-3 2-4-1-10 2-4h5v2l3 1 5 5 1 5 5 1 4 5 11 11 2 8-3 5h-3l-2 4-3 1-2 4-4 5-3 3h-2v2l-4 3h-2v2l-2 1-1 3-5 2-3-1h-7l-4 2-5-1-13-3-5-7-5-3-6-7-13-13-4-10v-5l3-3-3-9v-8l2-3-2-10 3-4-1-10 1-3h2l1-3h2l1-3h2l1-3h2l1-3h2v-2h2l1-3h2v-2l4-4h2v-2l5-4z" fill="#519A62"/>
<path transform="translate(92,439)" d="m0 0h6l4 2h7l3-2h6l6 3 10 2 3 6 6 6 1 13-1 5 1 6v19l1 7-1 3-1 16-2 1 2 4v7l-3 3h-2l-1 3h-2v2l-9 9h-2l-2 4-5 5h-2l-2 4-3 1-1 3-5 3-11-2-1 3-10-1-12-4-3-5-5-3-1-3-5-3-3-4v-2l-4-2-1-3-5-2-1-1v-6h2l1-3 5-5 3-1v-2l10-10 4-2v-2l5-5 4-3 5 1 3 7-1 5-1 2 1 9 1 3 16 2 1-4v-11l2-5-2-3-1-9 1-3h2l-2-5-2-13-4-4-3-2-2-6-5-2-1-3-5-2-3-6-5-3 2-7 3-3h16z" fill="#519A62"/>
<path transform="translate(417,439)" d="m0 0h8l5 2h6l2-2h5l8 3 4-1 4-2 5 1 6 5-3 7-7 6-7 8-10 9-2 3h-2l-2 4-9 2-14-1-4-1-2 4 1 9v5l5 1h9l3-2 6 1 8 6 3 5v3l5 1 4 4 5 7 6 3 2 7-1 5-10 10h-2l-2 4-7 7-4 5-7 6h-13l-3 2-6-1-9-2-6 3-7-2-1-1h-7l-2 2-9-1-4-4 2-5 31-31 11-3 2-1 7 1-1-3-5-3-1-3-4-2-3-5-6-4-5-5-1-4-5-2-5-6-4-4v-2l-5-1-3-5v-8l3-1v-2l5-4 5-5 4-5 8-7 9-9 13 1z" fill="#519A62"/>
<path transform="translate(208,441)" d="m0 0 9 3 7-1 1-1 8 1 10 3 3 5 6 2 2 11 1 4-2 2v7l2 8-2 5 1 9 1 7-4 6-14 1-7-1h-10l-4-6v-7l2-2 1-5h-2l-3-9-4-2-8-2h-6l-3 2-1 4 1 1-1 9-1 2v6l1 2v6l-5 1h-27v8h-2l-4-8v-5l2-2v-8l-1-5 2-5-2-8-1-5 2-2v-10l-1-3 5-6 5-4 5-5 6-2 9 3 5-1 1-2 3 1 11 1v-2z" fill="#428556"/>
<path transform="translate(640,439)" d="m0 0h5l7 3 9 2 3 6 6 3 2 4 4 4v2l5 1 4 6 5 5 2 5v9l-1 1v7l1 3v9l-5 5-8 7-4 5-8 8h-2v5l8 7 4 6 5 2 8 12v5l-4 3-6-1-4-1-4 3-8-1-12-4-4-8v-9l1-5-3-3-5-2h-4l-1 2-5 1v10l-2 3 1 6 1 5-4 3-7 1-1 1-9-1-7-1-5 2-7-1-3-3 1-9-1-7v-18l-1-10 1-9-2-6 1-6 1-24-2-7 2-4v-13l5-5 10-11 3-2 7 1 9 2 3-2h13zm1 3-4 3-3-1h-10l-5 1-11-2-5 2-1 4-4 2-8 8 1 13-2 3 1 5 2 8-3 6 2 11-2 6h2l1 5h2v-4h14l5 2 7-2h52l5-1 3 2 8-3 1-1v-11l-2-6 2-3v-11l-4-5-4-1v-5l-6-1v-2h-2l-1-4-7-7-3-1-3-5-2-2-12-2z" fill="#519A62"/>
<path transform="translate(699,439)" d="m0 0h7l6 4 1 3 7 4 1 5 5 2 8 8 1 4 5 1 2 3 1 7-2 4v7l1 6-2 3h-2l4 12v7l-3 2 1 5 2 6v8h-2v2l-8 7-4 5h-2l-2 4-6 5-1 2h-2v2l-5 5-4 3-5-1-3-6-2-9-1-2v-6l2-3-1-8-1-2v-10l2-1-1-7-1-3 2-5v-8l-2-4v-6l2-4-1-9-1-2v-7l1-1v-9l-2-9 2-4 2-9z" fill="#519A62"/>
<path transform="translate(528,442)" d="m0 0h7l11 3 4 5v2l5 1 3 6 5 2 2 4 4 3 1 4 5 2 2 2v14l-1 4 1 8-2 2v6l-2 2h-9l-1 3h-2l-1-2-3-1h-21v-4l3-2v-5l3-4-5-15-2-1-11-1-2-2-4 1-3 4 1 6v13l-1 4v7l-9-1h-23l-3-7-2-9v-4h2v-8l-1-6 3-1v-2h2l2-4 4-2 1-3h2l2-4 4-4h2l2-5 3-1 9-9 11 1z" fill="#428556"/>
<path transform="translate(317,441)" d="m0 0 9 3 8 2 2 3v3l4 1 3 5 4 1 4 6 4 2 1 4 5 2v5l-7 5-1 3-6 5h-2l-1 3-7 6-3 4v7l-3 1-3-1-3-7 1-6 1-5-2-4-2-7-12-3h-7l-2 3v12l-2 4v5l2 3v5l-5 1h-27v7l-4 1-2-8v-6l1-1v-8l-1-5h2v-7l-1-6 3-4h2v-2h2l2-4 13-13h2l1-3h2l1-3 5-5 4-3 1 1 11 1v-2z" fill="#428556"/>
<path transform="translate(753,439)" d="m0 0h5l4 5v2l4 1v2h2v3l5 2 3 4v2l4 2 2 4 4 1 2 2v3l5 2 3 4v2l4 1 2 5 5 2 1 3h2v2h2l-1-9-1-1v-5l9-10 8-8h2l2-4 4-4h2l2-4 8-9h5l3 3-1 7h-2l2 7 1 4v7l-2 3 1 7 1 1v10l-1 6 1 6-1 3h-2l2 10 1 6-2 6v6l2 5v6l-1 2 1 18-3 10-5 2-1-3-3-1v-2l-5-2-3-6-5-3-1-3-4-2-3-5-6-3-3-5-3-3 1-5v-17l-9-2h-5l-4 5h-2l2 8v12h-2l4 16-2 6v11l-3 2-5-1v2l-3 2-9-1-10-3-2 4-9-2-3-3 1-5 1-4-2-9v-7h2l-1-8-1-3v-9l2-5-3-8 1-15v-6l2-2-1-7-1-2v-10l1-1v-7l-2-5 1-8 3-9zm2 2-3 9-1 2v6l2 4v7l-2 3 1 8 2 9v2l-3 1 1 5v7l-1 7 4 1v7h3l1-6 17-1 6 2 1-1h8l5-3 3-3 4 1 2 3h9l3 1v5l-2 3v6l3 5h-2l-1 5 3 2 2 5 6 3 2 4 7 6 3 3 1 5h7v6l4-1-1-7 4-1-1-5-1-1-2-13h2l1-6-2-3v-10l1-6-2-14 3-1-1-13 2-4-2-9-1-6 2-3v-7l-2-7v-6h2l-1-5h-4l-5 7-2 1v2h-2l-3 4v2h-3l-7 8-7 7v2h-2v2l-3 1v8l2 4v6l-5-1-5-4-6-2v-5l-6-3h-2l-2-6h-2l-1-4-6-2-3-7-4-1v-2l-6-4-2-6-5-1-3-6z" fill="#519A62"/>
<path transform="translate(920,441)" d="m0 0 10 1 10 4 2 4 5 3 1 4 6 2 2 5 5 4 1 2 5 2v5l-4 3-7-1-4-2-8 1-5 2-3-2h-5l-1 2h-8l-5-2h-7l-4 5 1 4 1 1v6l-3 1v7l2 3v8l-9 1-2-2-10-1-4 1-8 1-5-2v-6l2-2-1-8v-4h2l-1-13 4-5h2l1-3h2v-3l4-3h2v-2l2-1 1-3 7-6 8-8 1-2h6v2l7-2z" fill="#428556"/>
<path transform="translate(419,441)" d="m0 0 17 4 3-3 9 2h8l6-2 4 3-1 5-8 6-6 8-5 5-9 8-2 2h-5l-1 1-11 1-5-3h-4l-4 5v6l1 5-1 1v6l4 2 14 1 9-1 2 1v6l-5 2h-23l-5-1-3-7-4-2-4-4-3-2-1-5-6-3-5-5-3-7 4-6 8-7 6-6h2l1-4 7-5 4-5 11 1z" fill="#428556"/>
<path transform="translate(93,442)" d="m0 0h5l6 2h6l4-2 9 2 9 3 3 5 4 4 1 7h2v6l-3 3 3 9v8h-2l1 9 2 2v6l-1 2h-2l-1 3h-2v2l-8-1h-20l-3-1-4-8v-3h2l1-9-3-7-2-12h-5l-2-2-2-5-4-2v-2l-4-2-2-3v-3l-6-2 1-6 1-1h10l5 1z" fill="#428556"/>
<path transform="translate(700,442)" d="m0 0 7 1 4 2 1 5 4 1 1 4 4 2 3 2 1 4 6 2 1 5 5 2 2 1 1 8-1 2h-2l1 9 1 5-3 5 1 2v7h-7v-2l-4 2-5 1-3-1v-2l-5 2-7 3-3 1v4h-2l1-7h-1l-2-12-1-5 2-4-2-12-1-4 2-3v-11l-3-6v-2l3-2z" fill="#428556"/>
<path transform="translate(753,439)" d="m0 0h5l4 5v2l4 1v2h2v3l5 2 3 4v2l4 2 2 4 4 1 2 2v3l5 2 3 4v2l4 1 2 5 5 2 1 3h2v2h2l-1-9-1-1v-5l9-10 8-8h2l2-4 4-4h2l2-4 8-9h5l3 3-1 7h-2l2 7 1 4v7l-2 3 1 7 1 1v10l-1 6 1 6-1 3h-2l2 10 1 6-2 6v6l2 5v6l-1 2 1 18-3 10-5 2-1-3-3-1v-2l-5-2-3-6-5-3-1-3-4-2-3-5-6-3-3-5-3-3 1-5v-17l-9-2h-5l-4 5h-2l2 8v12h-2l4 16-2 6v11l-3 2-5-1v2l-3 2-9-1-10-3-2 4-9-2-3-3 1-5 1-4-2-9v-7h2l-1-8-1-3v-9l2-5-3-8 1-15v-6l2-2-1-7-1-2v-10l1-1v-7l-2-5 1-8 3-9zm2 2-3 9-1 2v6l2 4v7l-2 3 1 8 2 9v2l-3 1 1 5v7l-1 2v6l3 8-1 5-1 1 1 10v9l-1 5 1 1 1 14-2 5 10 1 1-4 6 3 13 2v-2h8v-8l-1-2 2-10-1-7-4-1v-4l4-2v-12l-4-2 2-5 5-5 6-5 4 1 2 3h9l3 1v5l-2 3v6l3 5h-2l-1 5 3 2 2 5 6 3 2 4 7 6 3 3 1 5h7v6l4-1-1-7 4-1-1-5-1-1-2-13h2l1-6-2-3v-10l1-6-2-14 3-1-1-13 2-4-2-9-1-6 2-3v-7l-2-7v-6h2l-1-5h-4l-5 7-2 1v2h-2l-3 4v2h-3l-7 8-7 7v2h-2v2l-3 1v8l2 4v6l-5-1-5-4-6-2v-5l-6-3h-2l-2-6h-2l-1-4-6-2-3-7-4-1v-2l-6-4-2-6-5-1-3-6z" fill="#71A980"/>
<path transform="translate(417,439)" d="m0 0h8l5 2h6l2-2h5l8 3 4-1 4-2 5 1 6 5-3 7-7 6-7 8-10 9-2 3h-2l-2 4-9 2-14-1-4-1-2 4 1 9v5l5 1h9l3-2 6 1 8 6 3 5v3l5 1 4 4 5 7 6 3 2 7-1 5-10 10h-2l-2 4-7 7-4 5-7 6h-13l-3 2-6-1-9-2-6 3-7-2-1-1h-7l-2 2-9-1-4-4 2-5 31-31 11-3 2-1 7 1-1-3-5-3-1-3-4-2-3-5-6-4-5-5-1-4-5-2-5-6-4-4v-2l-5-1-3-5v-8l3-1v-2l5-4 5-5 4-5 8-7 9-9 13 1zm2 2-4 3-11-1-5 6-6 4-1 4-4 2-7 7-5 4-4 7 5 8 6 5 3 1 2 6 5 3 3 3 3 2 2 6 8 1 2 4 4 7 7 2 2 7 1 5-6-1-1-2h-8l-3 2h-6l-8 6-4 4v2h-2v2l-3 1-3 4v2h-2v2h-3l-4 5-4 3v3l10 1 2-3 15 3 4-1 13 1h4l2-4 4 3h10v-3h2v-2l4-2 2-4 5-2 9-10 8-7v-6l-8-8-6-3-2-6-5-3-2-3h-4l-1-7-2-1-14 1-12-2-1-1v-6l1-5-1-1v-6l4-5 5 1 6 2 9-1 1-1h6l7-8 5-5 6-5 3-5 9-7-1-5-5-2-4 2h-8l-9-2-4 3z" fill="#71A980"/>
<path transform="translate(905,439)" d="m0 0h6l5 1 1-1h13l12 5 3 3v2h2l1 3 2 1v2l5 2 4 6 5 3 6 6v5l-5 2-1 4h-7l-7-2h-5l-3 2-11-1-1 1h-10l-8-2-2 5 1 8-2 3 1 7 1 3v7l-2 3 1 6 1 5h3v2h14l1-1v-8l-1-3 2-4-1-10 2-4h5v2l3 1 5 5 1 5 5 1 4 5 11 11 2 8-3 5h-3l-2 4-3 1-2 4-4 5-3 3h-2v2l-4 3h-2v2l-2 1-1 3-5 2-3-1h-7l-4 2-5-1-13-3-5-7-5-3-6-7-13-13-4-10v-5l3-3-3-9v-8l2-3-2-10 3-4-1-10 1-3h2l1-3h2l1-3h2l1-3h2l1-3h2v-2h2l1-3h2v-2l4-4h2v-2l5-4zm15 2-3 2-6 1v-2h-6l-4 6-4 2-6 7-2 1-1 3-2 1v2l-6 3v3l-3 1v2l-4 2-2 3 1 13-3 1 2 6v5l-2 2v7l2 4 1 9-3 1 2 6 1 7 10 5 4 9 6 1 2 6 3 1 1 4 8 3 10 3 3-1v-2l9 2h5l3-5 3-2v-2h2l3-3v-2l3-1v-2l3-1v-2h2l3-3v-2h3l4-5 2-1v-6l-3-4-5-2-1-2h-2l-2-4-1-3-6-3-3-6-5-5-5-1v5l3 3h2l-1 5-3 3v13l-2 3-18-2-5-8-4-2 1-4 2-4 2-1-1-9-2-5v-5l3-1v-6l-2-2 1-4 3-4h7l5 2h8l1-2 7 1h4l5-2h5l6 3h5l4-3v-5l-5-2-4-5-3-3-2-4-5-1-1-4-5-3-3-5-14-4z" fill="#71A980"/>
<path transform="translate(640,439)" d="m0 0h5l7 3 9 2 3 6 6 3 2 4 4 4v2l5 1 4 6 5 5 2 5v9l-1 1v7l1 3v9l-5 5-8 7-4 5-8 8h-2v5l8 7 4 6 5 2 8 12v5l-4 3-6-1-4-1-4 3-8-1-12-4-4-8v-9l1-5-3-3-5-2h-4l-1 2-5 1v10l-2 3 1 6 1 5-4 3-7 1-1 1-9-1-7-1-5 2-7-1-3-3 1-9-1-7v-18l-1-10 1-9-2-6 1-6 1-24-2-7 2-4v-13l5-5 10-11 3-2 7 1 9 2 3-2h13zm1 3-4 3-3-1h-10l-5 1-11-2-5 2-1 4-4 2-8 8 1 13-2 3 1 5 2 8-3 6 2 11-2 4 2 9v21l2 5-2 1-1 5 2 9 2 5-3 3 1 4 5 1 7-2 9 1 5 1 2-4h2v2h5v-5l-1-1v-6l2-3v-14h2l5 1 3-3 9 2 6-1v11l-2 3v6l2 1 1 6h2v2l2 1 10 1 4 1v-2h15l-1-5-3-3-4-1-2-7-5-1-1-4-3-1-4-6-5-3-1-2h3l3-4v-2l3-1v-2l3-1v-2h2l3-4v-2l4-2 5-5 5-3v-11l-2-6 2-3v-11l-4-5-4-1v-5l-6-1v-2h-2l-1-4-7-7-3-1-3-5-2-2-12-2z" fill="#71A980"/>
<path transform="translate(92,439)" d="m0 0h6l4 2h7l3-2h6l6 3 10 2 3 6 6 6 1 13-1 5 1 6v19l1 7-1 3-1 16-2 1 2 4v7l-3 3h-2l-1 3h-2v2l-9 9h-2l-2 4-5 5h-2l-2 4-3 1-1 3-5 3-11-2-1 3-10-1-12-4-3-5-5-3-1-3-5-3-3-4v-2l-4-2-1-3-5-2-1-1v-6h2l1-3 5-5 3-1v-2l10-10 4-2v-2l5-5 4-3 5 1 3 7-1 5-1 2 1 9 1 3 16 2 1-4v-11l2-5-2-3-1-9 1-3h2l-2-5-2-13-4-4-3-2-2-6-5-2-1-3-5-2-3-6-5-3 2-7 3-3h16zm1 3-1 3-5-1h-10l-2 3 1 5 5 1 1 5 3 3h2v2l5 3 2 5 1 1h5l2 12 3 7v6l-1 3h-2l1 4 3 7v6l-2 3 1 5v7l-4 4-1 2h-5l-2-4h-11l-2-1-1-8v-16l-1-3h-2l-4 5-4 4v2l-4 1v2h-2v2l-3 1v2l-3 1-6 7-5 4v3l5 3 1 4 5 1 2 4 5 3 3 7 6 2 2 4 4 2 9 1 5 1 1-2 11 1 6-6 8-7v-2h2l9-9v-2l3-1v-2h2l3-3v-2l3-1-1-5-1-6 2-3v-14h2l1-2v-6l-3-5v-6h2v-8l-3-10 3-2v-6h-2l-2-9-5-5-1-2-9-3-9-2-4 2-11-1-1-1z" fill="#71A980"/>
<path transform="translate(849,509)" d="m0 0h1l1 12-1 2v10l2 3-1 6h-2l2 13 2 3-1 4h-3l1 7-4 1v-6h-7l-2-7-6-4-4-4-2-4-6-3-1-4-3-2 1-5h2l-3-5v-6l2-3 1-5 7-1h19l4 2z" fill="#519A62"/>
<path transform="translate(172,439)" d="m0 0h5v2l6 1 4 1 4-2v-2l10 2 4-2h7l9 3 3-1v-2l9 1 14 5 8 10 3 9v5l-2 1v7l2 4v7l-2 3v6l2 3v8l-2 5 1 9-3 4 2 7 2 6-2 4v13l-7 8h-2l-1 3h-2l-1 3h-2l-1 3-2 1-9-1-2-1h-7l-1 2-11-1-4 2h-6l-7-3-5 1-1 2-8-1-14-4-3-5-6-4-2-9v-7h2l-2-10v-10l1-1v-7l-2-4v-7l1-2v-13l2-4-2-7-1-7 2-3v-7l-1-4 3-4h2v-2l4-4h2l2-4 3-1 1-3zm36 2-3 1v2l-11-1-3-1-3 3-11-2-3-1-8 5-4 5-5 4-2 4 1 2v10l-2 2 1 5 2 9-2 4 1 5v8l-2 2 1 7 1 1v30l-1 4 1 1 1 11 7 2 3 5 4 2 9 1 4 1 2-3 6 1 7 2 6-1 5-1 8 1 1-4 6 2 2 1h11l4-4 5-4 5-5 1-4-1-10 2-3-1-6-1-9 1-6v-10l2-3-1-7-1-9 2-6-2-7v-7l2-4-2-5-1-8-7-3-2-4-13-4h-5l-3 2-9-1z" fill="#71A980"/>
<path transform="translate(300,439)" d="m0 0 10 2 4-2h8l6 3 9 3 4 6 9 7 2 5 7 4 4 5 1 5-3 4h-2l-1 3h-2v2l-3 3h-2l-1 3-7 6-5 6 1 6 2 3 4 2 4 6 7 6 3 2 2 7 1 2-4 6-6 5-5 5-3 4h-2l-2 4-7 6-5 5-4 1-6-2-6 3-6-1-5-2h-5l-4 3-17-4-1 3-8-1-5-3 1-5 1-1v-9l-2-4v-6l2-1v-7l-2-3v-9l2-2-1-7-1-1v-10l1-6-1-7 2-2v-7l-1-4 2-4h2l1-3 7-6 4-5 7-6 2-3h2v-2l8-7zm17 2-3 1v2l-11-1h-3l-5 6-3 2v2l-3 1v2l-4 2-13 13v2h-2v2l-4 2-1 3 1 9v3h-2l1 5v8l-1 1v6l2 8-1 11 1 14-1 5 1 2 1 12-1 5 6 2 3-3 4 1 2 1 13 1 2-3 4 1 8 3 4-1 9-1 6 1 4-6 8-7 3-2v-2l3-1 4-5 5-4v-2h2l2-3-1-4-2-5-10-7-1-6-7-1-2-5-1-7 10-10 1-3 4-2 4-3 3-5 5-3v-5l-5-2-1-4-6-4-2-4-4-1-3-5-4-1-1-5-3-2-10-2z" fill="#71A980"/>
<path transform="translate(527,439)" d="m0 0h8l9 4 7 2 4 6 3 2v2l5 2 4 6 5 4v2l4 2 2 4v3h2l1 3v8l-1 2h-2l2 7v5l-2 1-1 8-8 8h-2l-2 4-4 2-2 4-4 4h-2l-2 4-4 5-3 2h-7l-4-2h-6l-3 2h-5v25l-3 2h-5l-4 3-8-1-4-2h-5l-3 3-10-3-2-4 2-4h2l-4-14 1-5 3-1-3-7-1-9 2-8-1-2v-7l2-1v-6l-2-3v-10l1-2h2l-2-5-1-1v-5l3-1 2-4 4-4h2l2-4 4-2v-2l9-9h2l2-4 8-8 13 1zm1 3-2 2-11-1-9 9-3 1-2 5-4 2-4 4v2l-3 1v2l-4 2-2 4h-2v2l-3 1 1 11v3h-2l1 6 2 9v4l-2 1 1 13-2 2 1 7 2 10-4 2v4l4 1v14l-3 4 9 3 3-4 3-1v2l9 2h6l4-2h4l-2-10 3-6-2-11h7l3-2 13-1 1 3h4v-2h3l7-8 5-5 9-10 1-2 3-1v-2l4-2v-6l2-2-1-10 1-2v-14l-3-3-4-1-2-5-4-3-2-4-5-2-2-5-5-1-2-5-2-2-11-3z" fill="#71A980"/>
<path transform="translate(699,439)" d="m0 0h7l6 4 1 3 7 4 1 5 5 2 8 8 1 4 5 1 2 3 1 7-2 4v7l1 6-2 3h-2l4 12v7l-3 2 1 5 2 6v8h-2v2l-8 7-4 5h-2l-2 4-6 5-1 2h-2v2l-5 5-4 3-5-1-3-6-2-9-1-2v-6l2-3-1-8-1-2v-10l2-1-1-7-1-3 2-5v-8l-2-4v-6l2-4-1-9-1-2v-7l1-1v-9l-2-9 2-4 2-9zm1 3-1 9-3 2 2 6 1 2v11l-2 5 2 5 1 11-2 2 2 10v9l-1 6h2v8l-2 2 1 12 1 7-2 2 2 16 3 6 5-3v-3h2l10-10 2-1v-3h2l4-5 8-6 3-5-3-11-2-6 4-1v-6l-1-1-2-11 3-4-2-14h2l1-7-1-3-5-3h-2l-1-5-6-2-2-5-4-3h-2l-1-4-4-1-2-6-6-2z" fill="#71A980"/>
<path transform="translate(198,482)" d="m0 0 12 1 3 2 2 7v5l-1 1v7l2 9-2 6 1 10-2 2h-8l-7-1-4-5v-9l1-1-1-7v-14l1-3-1-8z" fill="#FEFEFE"/>
<path transform="translate(306,482)" d="m0 0 13 1 4 4 1 10-1 1 1 8 1 10-1 2v12l-2 2h-8l-8-2-3-6v-7l2-5-2-7v-7l1-8v-6z" fill="#FEFEFE"/>
<path transform="translate(519,482)" d="m0 0 13 1 5 3 1 3v9l-2 4v4l-1 2h-2l-1 3-5 5-5 4-1 2-3-1-1-3 1-8v-6l1-6-1-14z" fill="#FEFEFE"/>
<path transform="translate(196,478)" d="m0 0h6l11 3 3 3 1 8h2v5l-2 2v7l4 6v5l-3 3v7l1 1v5l-6 8-3-1v-3l-6-2-10-1-1-1-1-8-3-3 1-5 2-3-1-9-1-2v-6l2-5v-6l-1-2 3-5zm2 4-4 2 1 10-1 1v14l1 7-1 1v9l4 5 7 1h8l2-4-1-8 2-8-2-7v-7l1-1-1-7-2-6-10-2z" fill="#71A980"/>
<path transform="translate(304,478)" d="m0 0h7l12 3 2 2 2 9 1 5-2 3 1 8 3 4-1 5-2 2-1 9h2v5h-2l-2 6-4 1-4-4-2-1-9-1-3-3-2-7-2-1 1-7 2-2v-8l-2-3 1-7 1-2v-12zm2 4-2 2v11l-1 3v7l2 9-2 3v7l3 6 8 2h8l2-2v-12l1-7-2-8v-5l1-1-1-10-4-4z" fill="#71A980"/>
<path transform="translate(519,477)" d="m0 0 4 1 1 1 11 1 4 3 2 8 2 6-3 4v5l-4 3-1 3h-2l-1 4-4 2-2 5-5 4h-6l-3-2 1-8 2-3-1-10 1-2v-13l-1-6zm0 5-1 2 1 18-1 2v11l-1 4 2 3h2l5-5 4-5 3-2v-2h2l2-5-1-2 2-3v-9l-3-5-12-2z" fill="#71A980"/>
<path transform="translate(631,483)" d="m0 0h10l7 4 3 10-7 6h-8l-6-2v-9l-1-8z" fill="#FEFEFE"/>
<path transform="translate(631,479)" d="m0 0 9 1 7 1 4 4 2 3 1 10-10 8-5 1-4-2-10-2-1-3 2-5v-11l2-4zm0 4-2 1 1 12v5l6 2h8l7-6-3-10-7-4z" fill="#71A980"/>
<path transform="translate(931,503)" d="m0 0 5 1 5 5v5l-8-4-2-2z" fill="#438657"/>
<path transform="translate(249,546)" d="m0 0h2v7h2v3l-6 1 1-5z" fill="#438757"/>
</svg>
